<?xml version="1.0" encoding="UTF-8"?>
<svg width="36px" height="36px" viewBox="0 0 36 36" version="1.1" xmlns="http://www.w3.org/2000/svg" xmlns:xlink="http://www.w3.org/1999/xlink">
    <!-- Generator: Sketch 40.3 (33839) - http://www.bohemiancoding.com/sketch -->
    <title>Fill 53</title>
    <desc>Created with Sketch.</desc>
    <defs></defs>
    <g id="SketchAppSources.com" stroke="none" stroke-width="1" fill="none" fill-rule="evenodd">
        <g id="Material-Icons" transform="translate(-371.000000, -6250.000000)" fill="#000000">
            <g id="content" transform="translate(237.000000, 6246.000000)">
                <path d="M166,4 L138,4 C135.78,4 134,5.8 134,8 L134,36 C134,38.2 135.78,40 138,40 L166,40 C168.2,40 170,38.2 170,36 L170,8 C170,5.8 168.2,4 166,4 L166,4 Z M162,24 L154,24 L154,32 L150,32 L150,24 L142,24 L142,20 L150,20 L150,12 L154,12 L154,20 L162,20 L162,24 L162,24 Z" id="Fill-53"></path>
            </g>
        </g>
    </g>
</svg>