<?xml version="1.0" encoding="UTF-8"?>
<svg width="36px" height="40px" viewBox="0 0 36 40" version="1.1" xmlns="http://www.w3.org/2000/svg" xmlns:xlink="http://www.w3.org/1999/xlink">
    <!-- Generator: Sketch 40.3 (33839) - http://www.bohemiancoding.com/sketch -->
    <title>Fill 17</title>
    <desc>Created with Sketch.</desc>
    <defs></defs>
    <g id="SketchAppSources.com" stroke="none" stroke-width="1" fill="none" fill-rule="evenodd">
        <g id="Material-Icons" transform="translate(-1293.000000, -706.000000)" fill="#000000">
            <g id="action" transform="translate(233.000000, 580.000000)">
                <path d="M1091.927,129.99 L1083.586,129.99 C1082.748,127.676 1080.553,126 1077.959,126 C1075.365,126 1073.17,127.676 1072.332,129.99 L1063.991,129.99 C1061.796,129.99 1060,131.786 1060,133.981 L1060,161.918 C1060,164.113 1061.796,165.909 1063.991,165.909 L1091.927,165.909 C1094.122,165.909 1095.918,164.113 1095.918,161.918 L1095.918,133.981 C1095.918,131.786 1094.122,129.99 1091.927,129.99 L1091.927,129.99 Z M1077.959,129.99 C1079.056,129.99 1079.954,130.888 1079.954,131.986 C1079.954,133.084 1079.056,133.981 1077.959,133.981 C1076.861,133.981 1075.963,133.084 1075.963,131.986 C1075.963,130.888 1076.861,129.99 1077.959,129.99 L1077.959,129.99 Z M1067.982,153.936 L1081.95,153.936 L1081.95,157.927 L1067.982,157.927 L1067.982,153.936 Z M1067.982,145.954 L1087.937,145.954 L1087.937,149.945 L1067.982,149.945 L1067.982,145.954 Z M1067.982,137.972 L1087.937,137.972 L1087.937,141.963 L1067.982,141.963 L1067.982,137.972 Z" id="Fill-17"></path>
            </g>
        </g>
    </g>
</svg>