<?xml version="1.0" encoding="UTF-8"?>
<svg width="36px" height="40px" viewBox="0 0 36 40" version="1.1" xmlns="http://www.w3.org/2000/svg" xmlns:xlink="http://www.w3.org/1999/xlink">
    <!-- Generator: Sketch 40.3 (33839) - http://www.bohemiancoding.com/sketch -->
    <title>Fill 22</title>
    <desc>Created with Sketch.</desc>
    <defs></defs>
    <g id="SketchAppSources.com" stroke="none" stroke-width="1" fill="none" fill-rule="evenodd">
        <g id="Material-Icons" transform="translate(-766.000000, -830.000000)" fill="#000000">
            <g id="action" transform="translate(233.000000, 580.000000)">
                <path d="M564.927,253.99 L556.586,253.99 C555.748,251.676 553.553,250 550.959,250 C548.365,250 546.17,251.676 545.332,253.99 L536.991,253.99 C534.796,253.99 533,255.786 533,257.981 L533,285.918 C533,288.113 534.796,289.909 536.991,289.909 L564.927,289.909 C567.122,289.909 568.918,288.113 568.918,285.918 L568.918,257.981 C568.918,255.786 567.122,253.99 564.927,253.99 L564.927,253.99 Z M550.959,253.99 C552.056,253.99 552.954,254.888 552.954,255.986 C552.954,257.084 552.056,257.981 550.959,257.981 C549.861,257.981 548.963,257.084 548.963,255.986 C548.963,254.888 549.861,253.99 550.959,253.99 L550.959,253.99 Z M546.968,281.927 L538.986,273.945 L541.8,271.131 L546.968,276.28 L560.118,263.13 L562.932,265.963 L546.968,281.927 L546.968,281.927 Z" id="Fill-22"></path>
            </g>
        </g>
    </g>
</svg>