<?xml version="1.0" encoding="UTF-8"?>
<svg width="36px" height="40px" viewBox="0 0 36 40" version="1.1" xmlns="http://www.w3.org/2000/svg" xmlns:xlink="http://www.w3.org/1999/xlink">
    <!-- Generator: Sketch 40.3 (33839) - http://www.bohemiancoding.com/sketch -->
    <title>Fill 19</title>
    <desc>Created with Sketch.</desc>
    <defs></defs>
    <g id="SketchAppSources.com" stroke="none" stroke-width="1" fill="none" fill-rule="evenodd">
        <g id="Material-Icons" transform="translate(-371.000000, -830.000000)" fill="#000000">
            <g id="action" transform="translate(233.000000, 580.000000)">
                <path d="M169.927,253.99 L161.586,253.99 C160.748,251.676 158.553,250 155.959,250 C153.365,250 151.17,251.676 150.332,253.99 L141.991,253.99 C139.796,253.99 138,255.786 138,257.981 L138,285.918 C138,288.113 139.796,289.909 141.991,289.909 L169.927,289.909 C172.122,289.909 173.918,288.113 173.918,285.918 L173.918,257.981 C173.918,255.786 172.122,253.99 169.927,253.99 L169.927,253.99 Z M153.963,279.932 L157.954,279.932 L157.954,283.923 L153.963,283.923 L153.963,279.932 Z M153.963,263.968 L157.954,263.968 L157.954,275.941 L153.963,275.941 L153.963,263.968 Z M155.959,257.981 C154.861,257.981 153.963,257.084 153.963,255.986 C153.963,254.888 154.861,253.99 155.959,253.99 C157.056,253.99 157.954,254.888 157.954,255.986 C157.954,257.084 157.056,257.981 155.959,257.981 L155.959,257.981 Z" id="Fill-19"></path>
            </g>
        </g>
    </g>
</svg>