<?xml version="1.0" encoding="UTF-8"?>
<svg width="40px" height="22px" viewBox="0 0 40 22" version="1.1" xmlns="http://www.w3.org/2000/svg" xmlns:xlink="http://www.w3.org/1999/xlink">
    <!-- Generator: Sketch 40.3 (33839) - http://www.bohemiancoding.com/sketch -->
    <title>Shape</title>
    <desc>Created with Sketch.</desc>
    <defs></defs>
    <g id="SketchAppSources.com" stroke="none" stroke-width="1" fill="none" fill-rule="evenodd">
        <g id="Material-Icons" transform="translate(-237.000000, -9018.000000)" fill="#000000">
            <g id="file" transform="translate(237.000000, 9008.000000)">
                <path d="M0,21 C0,14.92 4.92,10 11,10 L32,10 C36.42,10 40,13.58 40,18 C40,22.42 36.42,26 32,26 L15,26 C12.24,26 10,23.76 10,21 C10,18.24 12.24,16 15,16 L30,16 L30,20 L14.82,20 C13.72,20 13.72,22 14.82,22 L32,22 C34.2,22 36,20.2 36,18 C36,15.8 34.2,14 32,14 L11,14 C7.14,14 4,17.14 4,21 C4,24.86 7.14,28 11,28 L30,28 L30,32 L11,32 C4.92,32 0,27.08 0,21 L0,21 Z" id="Shape"></path>
            </g>
        </g>
    </g>
</svg>