<?xml version="1.0" encoding="UTF-8"?>
<svg width="32px" height="37px" viewBox="0 0 32 37" version="1.1" xmlns="http://www.w3.org/2000/svg" xmlns:xlink="http://www.w3.org/1999/xlink">
    <!-- Generator: Sketch 40.3 (33839) - http://www.bohemiancoding.com/sketch -->
    <title>Fill 165</title>
    <desc>Created with Sketch.</desc>
    <defs></defs>
    <g id="SketchAppSources.com" stroke="none" stroke-width="1" fill="none" fill-rule="evenodd">
        <g id="Material-Icons" transform="translate(-373.000000, -958.000000)" fill="#000000">
            <g id="action" transform="translate(233.000000, 580.000000)">
                <path d="M171.999,388.292274 L166.379,388.292274 C165.479,386.732274 164.239,385.392274 162.739,384.372274 L165.999,381.112274 L163.179,378.292274 L158.839,382.632274 C157.919,382.412274 156.979,382.292274 155.999,382.292274 C155.02,382.292274 154.079,382.412274 153.18,382.632274 L148.82,378.292274 L146,381.112274 L149.24,384.372274 C147.76,385.392274 146.52,386.732274 145.62,388.292274 L140,388.292274 L140,392.292274 L144.18,392.292274 C144.08,392.952274 144,393.612274 144,394.292274 L144,396.292274 L140,396.292274 L140,400.292274 L144,400.292274 L144,402.292274 C144,402.972274 144.08,403.632274 144.18,404.292274 L140,404.292274 L140,408.292274 L145.62,408.292274 C147.7,411.872274 151.56,414.292274 155.999,414.292274 C160.439,414.292274 164.299,411.872274 166.379,408.292274 L171.999,408.292274 L171.999,404.292274 L167.819,404.292274 C167.919,403.632274 167.999,402.972274 167.999,402.292274 L167.999,400.292274 L171.999,400.292274 L171.999,396.292274 L167.999,396.292274 L167.999,394.292274 C167.999,393.612274 167.919,392.952274 167.819,392.292274 L171.999,392.292274 L171.999,388.292274 L171.999,388.292274 Z M152,400.292274 L160,400.292274 L160,404.292274 L152,404.292274 L152,400.292274 Z M152,392.292274 L160,392.292274 L160,396.292274 L152,396.292274 L152,392.292274 Z" id="Fill-165"></path>
            </g>
        </g>
    </g>
</svg>