<?xml version="1.0" encoding="UTF-8"?>
<svg width="39px" height="40px" viewBox="0 0 39 40" version="1.1" xmlns="http://www.w3.org/2000/svg" xmlns:xlink="http://www.w3.org/1999/xlink">
    <!-- Generator: Sketch 40.3 (33839) - http://www.bohemiancoding.com/sketch -->
    <title>Fill 90</title>
    <desc>Created with Sketch.</desc>
    <defs></defs>
    <g id="SketchAppSources.com" stroke="none" stroke-width="1" fill="none" fill-rule="evenodd">
        <g id="Material-Icons" transform="translate(-896.000000, -2444.000000)" fill="#000000">
            <g id="action" transform="translate(233.000000, 580.000000)">
                <path d="M697.317663,1885.96 C697.397663,1885.32 697.457663,1884.68 697.457663,1884 C697.457663,1883.32 697.397663,1882.68 697.317663,1882.04 L701.537663,1878.74 C701.917663,1878.44 702.017663,1877.9 701.777663,1877.46 L697.777663,1870.54 C697.537663,1870.1 696.997663,1869.94 696.557663,1870.1 L691.578663,1872.1 C690.538663,1871.3 689.418663,1870.64 688.198663,1870.14 L687.438663,1864.84 C687.378663,1864.36 686.958663,1864 686.458663,1864 L678.458663,1864 C677.958663,1864 677.538663,1864.36 677.478663,1864.84 L676.718663,1870.14 C675.498663,1870.64 674.378663,1871.32 673.338663,1872.1 L668.358663,1870.1 C667.898663,1869.92 667.378663,1870.1 667.138663,1870.54 L663.138663,1877.46 C662.878663,1877.9 662.998663,1878.44 663.378663,1878.74 L667.598663,1882.04 C667.518663,1882.68 667.458663,1883.34 667.458663,1884 C667.458663,1884.66 667.518663,1885.32 667.598663,1885.96 L663.378663,1889.26 C662.998663,1889.56 662.898663,1890.1 663.138663,1890.54 L667.138663,1897.46 C667.378663,1897.9 667.918663,1898.06 668.358663,1897.9 L673.338663,1895.9 C674.378663,1896.7 675.498663,1897.36 676.718663,1897.86 L677.478663,1903.16 C677.538663,1903.64 677.958663,1904 678.458663,1904 L686.458663,1904 C686.958663,1904 687.378663,1903.64 687.438663,1903.16 L688.198663,1897.86 C689.418663,1897.36 690.538663,1896.68 691.578663,1895.9 L696.557663,1897.9 C697.017663,1898.08 697.537663,1897.9 697.777663,1897.46 L701.777663,1890.54 C702.017663,1890.1 701.917663,1889.56 701.537663,1889.26 L697.317663,1885.96 L697.317663,1885.96 Z M682.458663,1891 C678.598663,1891 675.458663,1887.86 675.458663,1884 C675.458663,1880.14 678.598663,1877 682.458663,1877 C686.318663,1877 689.458663,1880.14 689.458663,1884 C689.458663,1887.86 686.318663,1891 682.458663,1891 L682.458663,1891 Z" id="Fill-90"></path>
            </g>
        </g>
    </g>
</svg>