<?xml version="1.0" encoding="UTF-8"?>
<svg width="32px" height="40px" viewBox="0 0 32 40" version="1.1" xmlns="http://www.w3.org/2000/svg" xmlns:xlink="http://www.w3.org/1999/xlink">
    <!-- Generator: Sketch 40.3 (33839) - http://www.bohemiancoding.com/sketch -->
    <title>Fill 159</title>
    <desc>Created with Sketch.</desc>
    <defs></defs>
    <g id="SketchAppSources.com" stroke="none" stroke-width="1" fill="none" fill-rule="evenodd">
        <g id="Material-Icons" transform="translate(-373.000000, -1204.000000)" fill="#000000">
            <g id="action" transform="translate(233.000000, 580.000000)">
                <path d="M160,624 L144,624 C141.8,624 140.02,625.8 140.02,628 L140,660 C140,662.2 141.78,664 143.98,664 L168,664 C170.2,664 172,662.2 172,660 L172,636 L160,624 L160,624 Z M148,652 L164,652 L164,656 L148,656 L148,652 Z M148,644 L164,644 L164,648 L148,648 L148,644 Z M158,638 L158,627 L169,638 L158,638 L158,638 Z" id="Fill-159"></path>
            </g>
        </g>
    </g>
</svg>