<?xml version="1.0" encoding="UTF-8"?>
<svg width="36px" height="36px" viewBox="0 0 36 36" version="1.1" xmlns="http://www.w3.org/2000/svg" xmlns:xlink="http://www.w3.org/1999/xlink">
    <!-- Generator: Sketch 41.1 (35376) - http://www.bohemiancoding.com/sketch -->
    <title>Fill 154</title>
    <desc>Created with Sketch.</desc>
    <defs></defs>
    <g id="SketchAppSources.com" stroke="none" stroke-width="1" fill="none" fill-rule="evenodd">
        <g id="Material-Icons" transform="translate(-371.000000, -1330.000000)" fill="#000000">
            <g id="action" transform="translate(233.000000, 580.000000)">
                <path d="M152.18,775.18 L155,778 L165,768 L155,758 L152.18,760.82 L157.34,766 L138,766 L138,770 L157.34,770 L152.18,775.18 L152.18,775.18 Z M170,750 L142,750 C139.78,750 138,751.8 138,754 L138,762 L142,762 L142,754 L170,754 L170,782 L142,782 L142,774 L138,774 L138,782 C138,784.2 139.78,786 142,786 L170,786 C172.2,786 174,784.2 174,782 L174,754 C174,751.8 172.2,750 170,750 L170,750 Z" id="Fill-154"></path>
            </g>
        </g>
    </g>
</svg>