<?xml version="1.0" encoding="UTF-8"?>
<svg width="42px" height="42px" viewBox="0 0 42 42" version="1.1" xmlns="http://www.w3.org/2000/svg" xmlns:xlink="http://www.w3.org/1999/xlink">
    <!-- Generator: Sketch 40.3 (33839) - http://www.bohemiancoding.com/sketch -->
    <title>Fill 152</title>
    <desc>Created with Sketch.</desc>
    <defs></defs>
    <g id="SketchAppSources.com" stroke="none" stroke-width="1" fill="none" fill-rule="evenodd">
        <g id="Material-Icons" transform="translate(-632.000000, -1326.000000)" fill="#000000">
            <g id="action" transform="translate(233.000000, 580.000000)">
                <path d="M435.999,766 L432.999,766 L432.999,758 C432.999,755.8 431.199,754 428.999,754 L420.999,754 L420.999,751 C420.999,748.24 418.759,746 415.999,746 C413.239,746 410.999,748.24 410.999,751 L410.999,754 L403,754 C400.8,754 399.02,755.8 399.02,758 L399.02,765.599 L402,765.599 C404.979,765.599 407.399,768.02 407.399,771 C407.399,773.98 404.979,776.399 402,776.399 L399,776.399 L399,783.999 C399,786.2 400.799,787.999 403,787.999 L410.599,787.999 L410.599,784.999 C410.599,782.019 413.019,779.599 415.999,779.599 C418.979,779.599 421.399,782.019 421.399,784.999 L421.399,787.999 L428.999,787.999 C431.199,787.999 432.999,786.2 432.999,783.999 L432.999,776 L435.999,776 C438.759,776 440.999,773.76 440.999,771 C440.999,768.24 438.759,766 435.999,766" id="Fill-152"></path>
            </g>
        </g>
    </g>
</svg>