<?xml version="1.0" encoding="UTF-8"?>
<svg width="40px" height="37px" viewBox="0 0 40 37" version="1.1" xmlns="http://www.w3.org/2000/svg" xmlns:xlink="http://www.w3.org/1999/xlink">
    <!-- Generator: Sketch 40.3 (33839) - http://www.bohemiancoding.com/sketch -->
    <title>Fill 146</title>
    <desc>Created with Sketch.</desc>
    <defs></defs>
    <g id="SketchAppSources.com" stroke="none" stroke-width="1" fill="none" fill-rule="evenodd">
        <g id="Material-Icons" transform="translate(-1027.000000, -1329.000000)" fill="#FF0000">
            <g id="action" transform="translate(233.000000, 580.000000)">
                <path d="M823,749 C819.52,749 816.179,750.62 814,753.18 C811.819,750.62 808.479,749 805,749 C798.84,749 794,753.84 794,760 C794,767.56 800.8,773.72 811.099,783.08 L814,785.7 L816.899,783.06 C827.199,773.72 833.999,767.56 833.999,760 C833.999,753.84 829.159,749 823,749 L823,749 Z M814.199,780.1 L814,780.3 L813.799,780.1 C804.279,771.48 798,765.78 798,760 C798,756 801,753 805,753 C808.079,753 811.079,754.98 812.14,757.72 L815.879,757.72 C816.919,754.98 819.919,753 823,753 C827,753 830,756 830,760 C830,765.78 823.719,771.48 814.199,780.1 L814.199,780.1 Z" id="Fill-146"></path>
            </g>
        </g>
    </g>
</svg>