<?xml version="1.0" encoding="UTF-8"?>
<svg width="40px" height="40px" viewBox="0 0 40 40" version="1.1" xmlns="http://www.w3.org/2000/svg" xmlns:xlink="http://www.w3.org/1999/xlink">
    <!-- Generator: Sketch 40.3 (33839) - http://www.bohemiancoding.com/sketch -->
    <title>Fill 138</title>
    <desc>Created with Sketch.</desc>
    <defs></defs>
    <g id="SketchAppSources.com" stroke="none" stroke-width="1" fill="none" fill-rule="evenodd">
        <g id="Material-Icons" transform="translate(-501.000000, -1576.000000)" fill="#000000">
            <g id="action" transform="translate(233.000000, 580.000000)">
                <path d="M288,996 C276.96,996 268,1004.96 268,1016 C268,1027.04 276.96,1036 288,1036 C299.04,1036 308,1027.04 308,1016 C308,1004.96 299.04,996 288,996 L288,996 Z M286,1026 L290,1026 L290,1030 L286,1030 L286,1026 Z M294.14,1014.5 L292.34,1016.34 C290.9,1017.8 290,1019 290,1022 L286,1022 L286,1021 C286,1018.8 286.9,1016.8 288.34,1015.34 L290.82,1012.82 C291.56,1012.1 292,1011.1 292,1010 C292,1007.8 290.2,1006 288,1006 C285.8,1006 284,1007.8 284,1010 L280,1010 C280,1005.58 283.58,1002 288,1002 C292.42,1002 296,1005.58 296,1010 C296,1011.76 295.28,1013.36 294.14,1014.5 L294.14,1014.5 Z" id="Fill-138"></path>
            </g>
        </g>
    </g>
</svg>