<?xml version="1.0" encoding="UTF-8"?>
<svg width="48px" height="36px" viewBox="0 0 48 36" version="1.1" xmlns="http://www.w3.org/2000/svg" xmlns:xlink="http://www.w3.org/1999/xlink">
    <!-- Generator: Sketch 41.1 (35376) - http://www.bohemiancoding.com/sketch -->
    <title>Fill 149</title>
    <desc>Created with Sketch.</desc>
    <defs></defs>
    <g id="SketchAppSources.com" stroke="none" stroke-width="1" fill="none" fill-rule="evenodd">
        <g id="Material-Icons" transform="translate(-760.000000, -14602.000000)" fill="#000000">
            <g id="notification" transform="translate(233.000000, 14350.000000)">
                <path d="M571,252 L541,252 C539.62,252 538.54,252.7 537.82,253.76 L527,270 L537.82,286.22 C538.54,287.28 539.76,288 541.14,288 L571,288 C573.2,288 575,286.2 575,284 L575,256 C575,253.8 573.2,252 571,252 L571,252 Z M545,273 C543.34,273 542,271.66 542,270 C542,268.34 543.34,267 545,267 C546.66,267 548,268.34 548,270 C548,271.66 546.66,273 545,273 L545,273 Z M555,273 C553.34,273 552,271.66 552,270 C552,268.34 553.34,267 555,267 C556.66,267 558,268.34 558,270 C558,271.66 556.66,273 555,273 L555,273 Z M565,273 C563.34,273 562,271.66 562,270 C562,268.34 563.34,267 565,267 C566.66,267 568,268.34 568,270 C568,271.66 566.66,273 565,273 L565,273 Z" id="Fill-149"></path>
            </g>
        </g>
    </g>
</svg>