<?xml version="1.0" encoding="UTF-8"?>
<svg width="34px" height="39px" viewBox="0 0 34 39" version="1.1" xmlns="http://www.w3.org/2000/svg" xmlns:xlink="http://www.w3.org/1999/xlink">
    <!-- Generator: Sketch 41 (35326) - http://www.bohemiancoding.com/sketch -->
    <title>Fill 112</title>
    <desc>Created with Sketch.</desc>
    <defs></defs>
    <g id="SketchAppSources.com" stroke="none" stroke-width="1" fill="none" fill-rule="evenodd">
        <g id="Material-Icons" transform="translate(-1162.000000, -15821.000000)" fill="#000000">
            <g id="social" transform="translate(239.000000, 15816.000000)">
                <path d="M939.574989,43.999 C941.719988,43.999 943.474987,42.2440011 943.474987,40.0990025 L935.674992,40.0990025 C935.674992,42.2440011 937.429991,43.999 939.574989,43.999 L939.574989,43.999 Z M952.249981,32.2990075 L952.249981,21.5740144 C952.249981,15.5875182 948.096484,10.5760214 942.499987,9.25002228 L942.499987,7.92499812 C942.499987,6.30552416 941.193488,5 939.574989,5 C937.95649,5 936.649991,6.30552416 936.649991,7.92499812 L936.649991,9.25002228 C931.053495,10.5760214 926.899997,15.5875182 926.899997,21.5740144 L926.899997,32.2990075 L923,36.199005 L923,38.1490038 L956.149979,38.1490038 L956.149979,36.199005 L952.249981,32.2990075 L952.249981,32.2990075 Z" id="Fill-112"></path>
            </g>
        </g>
    </g>
</svg>