<?xml version="1.0" encoding="UTF-8"?>
<svg width="34px" height="39px" viewBox="0 0 34 39" version="1.1" xmlns="http://www.w3.org/2000/svg" xmlns:xlink="http://www.w3.org/1999/xlink">
    <!-- Generator: Sketch 41 (35326) - http://www.bohemiancoding.com/sketch -->
    <title>Fill 111</title>
    <desc>Created with Sketch.</desc>
    <defs></defs>
    <g id="SketchAppSources.com" stroke="none" stroke-width="1" fill="none" fill-rule="evenodd">
        <g id="Material-Icons" transform="translate(-241.000000, -15945.000000)" fill="#000000">
            <g id="social" transform="translate(239.000000, 15816.000000)">
                <path d="M18.5749894,167.999 C20.719988,167.999 22.4749869,166.244001 22.4749869,164.099003 L14.6749919,164.099003 C14.6749919,166.244001 16.4299907,167.999 18.5749894,167.999 L18.5749894,167.999 Z M31.2499812,156.299008 L31.2499812,145.574014 C31.2499812,139.587518 27.0964839,134.576021 21.4999875,133.250022 L21.4999875,131.924998 C21.4999875,130.305524 20.1934883,129 18.5749894,129 C16.9564904,129 15.6499912,130.305524 15.6499912,131.924998 L15.6499912,133.250022 C10.0534948,134.576021 5.8999975,139.587518 5.8999975,145.574014 L5.8999975,156.299008 L2,160.199005 L2,162.149004 L35.1499787,162.149004 L35.1499787,160.199005 L31.2499812,156.299008 L31.2499812,156.299008 Z M27.3499837,158.249006 L9.799995,158.249006 L9.799995,145.574014 C9.799995,140.718517 13.7194925,136.79902 18.5749894,136.79902 C23.4304863,136.79902 27.3499837,140.718517 27.3499837,145.574014 L27.3499837,158.249006 L27.3499837,158.249006 Z" id="Fill-111"></path>
            </g>
        </g>
    </g>
</svg>