<?xml version="1.0" encoding="UTF-8"?>
<svg width="44px" height="32px" viewBox="0 0 44 32" version="1.1" xmlns="http://www.w3.org/2000/svg" xmlns:xlink="http://www.w3.org/1999/xlink">
    <!-- Generator: Sketch 41.1 (35376) - http://www.bohemiancoding.com/sketch -->
    <title>Fill 102</title>
    <desc>Created with Sketch.</desc>
    <defs></defs>
    <g id="SketchAppSources.com" stroke="none" stroke-width="1" fill="none" fill-rule="evenodd">
        <g id="Material-Icons" transform="translate(-1289.000000, -15948.000000)" fill="#000000">
            <g id="social" transform="translate(239.000000, 15816.000000)">
                <path d="M1078,148.001 C1082.42,148.001 1086,144.421 1086,140 C1086,135.58 1082.42,132 1078,132 C1073.58,132 1070,135.58 1070,140 C1070,144.421 1073.58,148.001 1078,148.001 L1078,148.001 Z M1060,144 L1060,138 L1056,138 L1056,144 L1050,144 L1050,148.001 L1056,148.001 L1056,154.001 L1060,154.001 L1060,148.001 L1066,148.001 L1066,144 L1060,144 L1060,144 Z M1078,152 C1072.66,152 1062,154.681 1062,160.001 L1062,164 L1094,164 L1094,160.001 C1094,154.681 1083.34,152 1078,152 L1078,152 Z" id="Fill-102"></path>
            </g>
        </g>
    </g>
</svg>