<?xml version="1.0" encoding="UTF-8"?>
<svg width="32px" height="44px" viewBox="0 0 32 44" version="1.1" xmlns="http://www.w3.org/2000/svg" xmlns:xlink="http://www.w3.org/1999/xlink">
    <!-- Generator: Sketch 40.3 (33839) - http://www.bohemiancoding.com/sketch -->
    <title>Fill 23</title>
    <desc>Created with Sketch.</desc>
    <defs></defs>
    <g id="SketchAppSources.com" stroke="none" stroke-width="1" fill="none" fill-rule="evenodd">
        <g id="Material-Icons" transform="translate(-900.000000, -830.000000)" fill="#000000">
            <g id="action" transform="translate(233.000000, 580.000000)">
                <path d="M682.865,259.916 L682.865,265.865 L690.798,257.933 L682.865,250 L682.865,255.949 C674.1,255.949 667,263.049 667,271.815 C667,274.929 667.912,277.824 669.459,280.263 L672.355,277.368 C671.462,275.722 670.966,273.818 670.966,271.815 C670.966,265.251 676.301,259.916 682.865,259.916 L682.865,259.916 Z M696.272,263.366 L693.376,266.262 C694.249,267.928 694.764,269.812 694.764,271.815 C694.764,278.379 689.43,283.714 682.865,283.714 L682.865,277.765 L674.933,285.697 L682.865,293.63 L682.865,287.68 C691.631,287.68 698.731,280.58 698.731,271.815 C698.731,268.701 697.818,265.806 696.272,263.366 L696.272,263.366 Z" id="Fill-23"></path>
            </g>
        </g>
    </g>
</svg>