<?xml version="1.0" encoding="UTF-8"?>
<svg width="40px" height="40px" viewBox="0 0 40 40" version="1.1" xmlns="http://www.w3.org/2000/svg" xmlns:xlink="http://www.w3.org/1999/xlink">
    <!-- Generator: Sketch 40.3 (33839) - http://www.bohemiancoding.com/sketch -->
    <title>Fill 9</title>
    <desc>Created with Sketch.</desc>
    <defs></defs>
    <g id="SketchAppSources.com" stroke="none" stroke-width="1" fill="none" fill-rule="evenodd">
        <g id="Material-Icons" transform="translate(-1027.000000, -584.000000)" fill="#1a2e6c">
            <g id="action" transform="translate(233.000000, 580.000000)">
                <path d="M813.959499,4 C802.942328,4 794,12.943 794,23.961 C794,34.98 802.942328,43.923 813.959499,43.923 C824.977671,43.923 833.919998,34.98 833.919998,23.961 C833.919998,12.943 824.977671,4 813.959499,4 L813.959499,4 Z M813.959499,9.988 C817.27325,9.988 819.948049,12.663 819.948049,15.977 C819.948049,19.29 817.27325,21.965 813.959499,21.965 C810.646748,21.965 807.971949,19.29 807.971949,15.977 C807.971949,12.663 810.646748,9.988 813.959499,9.988 L813.959499,9.988 Z M813.959499,38.334 C808.969874,38.334 804.558206,35.778 801.9834,31.906 C802.043395,27.933 809.967799,25.758 813.959499,25.758 C817.9322,25.758 825.875603,27.933 825.935599,31.906 C823.360792,35.778 818.950124,38.334 813.959499,38.334 L813.959499,38.334 Z" id="Fill-9"></path>
            </g>
        </g>
    </g>
</svg>
