<?xml version="1.0" encoding="UTF-8"?>
<svg width="36px" height="36px" viewBox="0 0 36 36" version="1.1" xmlns="http://www.w3.org/2000/svg" xmlns:xlink="http://www.w3.org/1999/xlink">
    <!-- Generator: Sketch 40.3 (33839) - http://www.bohemiancoding.com/sketch -->
    <title>Fill 6</title>
    <desc>Created with Sketch.</desc>
    <defs></defs>
    <g id="SketchAppSources.com" stroke="none" stroke-width="1" fill="none" fill-rule="evenodd">
        <g id="Material-Icons" transform="translate(-898.000000, -586.000000)" fill="#000000">
            <g id="action" transform="translate(233.000000, 580.000000)">
                <path d="M665,9.992 L665,37.938 C665,40.134 666.776,41.931 668.992,41.931 L696.938,41.931 C699.134,41.931 700.931,40.134 700.931,37.938 L700.931,9.992 C700.931,7.796 699.134,6 696.938,6 L668.992,6 C666.776,6 665,7.796 665,9.992 L665,9.992 Z M688.954,17.977 C688.954,21.29 686.279,23.965 682.965,23.965 C679.652,23.965 676.977,21.29 676.977,17.977 C676.977,14.663 679.652,11.988 682.965,11.988 C686.279,11.988 688.954,14.663 688.954,17.977 L688.954,17.977 Z M670.988,33.946 C670.988,29.954 678.973,27.758 682.965,27.758 C686.958,27.758 694.942,29.954 694.942,33.946 L694.942,35.942 L670.988,35.942 L670.988,33.946 L670.988,33.946 Z" id="Fill-6"></path>
            </g>
        </g>
    </g>
</svg>